<?xml version="1.0" standalone="no"?>
<!DOCTYPE svg PUBLIC "-//W3C//DTD SVG 20010904//EN"
 "http://www.w3.org/TR/2001/REC-SVG-20010904/DTD/svg10.dtd">
<svg version="1.0" xmlns="http://www.w3.org/2000/svg"
 width="273.000000pt" height="273.000000pt" viewBox="0 0 273.000000 273.000000"
 preserveAspectRatio="xMidYMid meet">
<metadata>
Created by potrace 1.14, written by Peter Selinger 2001-2017
</metadata>
<g transform="translate(0.000000,273.000000) scale(0.100000,-0.100000)"
fill="#000000" stroke="none">
<path d="M1310 2678 c-154 -15 -308 -62 -440 -131 -71 -38 -159 -93 -170 -107
-3 -4 -12 -11 -21 -16 -25 -13 -117 -102 -173 -164 -237 -266 -345 -656 -282
-1015 69 -392 315 -717 681 -898 65 -32 170 -70 226 -83 151 -33 279 -45 386
-34 l63 6 15 -46 c8 -25 18 -71 21 -102 4 -32 10 -58 14 -58 16 0 60 119 66
179 2 24 5 45 7 46 1 0 34 10 74 21 65 19 73 19 78 5 5 -13 8 -13 18 6 7 12
53 42 104 67 110 56 225 137 311 219 61 59 142 157 142 171 0 3 -41 6 -92 4
l-92 -2 -59 -58 c-69 -68 -164 -138 -250 -184 l-61 -32 -23 50 c-22 47 -23 68
-3 68 5 0 36 16 70 36 l60 35 -19 27 c-11 15 -32 42 -48 61 l-29 34 -41 -26
c-22 -14 -57 -33 -78 -41 l-37 -16 -105 97 c-102 95 -133 134 -133 170 -1 42
-17 -11 -19 -60 -3 -87 34 -154 159 -287 73 -78 147 -176 138 -185 -2 -3 -25
-11 -50 -19 l-46 -14 -20 47 c-11 26 -45 90 -77 142 -115 185 -129 217 -129
289 -1 36 3 85 7 110 37 221 9 298 -123 346 -68 24 -103 59 -95 93 8 34 49 76
103 108 23 14 51 36 62 50 11 14 20 22 21 17 0 -5 2 -16 4 -24 2 -8 6 -24 8
-36 17 -74 75 -178 177 -319 35 -48 60 -116 60 -164 0 -58 21 -21 27 47 6 73
-14 147 -67 252 -47 93 -57 116 -66 160 -4 19 -8 37 -9 40 -1 4 -9 49 -20 110
-2 8 -6 42 -10 75 -3 32 -8 62 -11 66 -7 12 -117 -3 -204 -27 -68 -19 -188
-81 -199 -103 -16 -35 -21 -281 -8 -401 21 -182 98 -404 194 -563 19 -32 33
-60 31 -62 -7 -7 -131 22 -187 44 -299 119 -504 406 -515 722 -3 81 0 118 19
218 10 59 64 187 106 252 227 350 671 473 1046 287 78 -38 82 -42 81 -72 -2
-91 -6 -86 77 -86 l75 0 0 95 0 95 -47 34 c-103 75 -266 141 -403 164 -48 8
-235 8 -290 0 -288 -42 -556 -231 -698 -491 -41 -75 -88 -194 -97 -250 -4 -18
-10 -48 -14 -67 -9 -41 -7 -248 3 -305 63 -351 314 -641 656 -755 85 -28 134
-37 239 -44 35 -3 67 -8 70 -13 32 -44 61 -96 57 -100 -11 -11 -172 -3 -256
11 -165 29 -309 90 -450 190 -168 120 -316 322 -388 531 -91 267 -65 604 67
838 10 19 25 45 33 58 34 60 124 172 183 228 290 271 699 362 1076 240 204
-66 424 -228 538 -396 l42 -63 84 0 c47 0 85 4 85 8 0 28 -136 210 -219 293
-266 266 -624 395 -991 357z"/>
<path d="M1352 2172 c-131 -131 -14 -393 129 -291 92 65 92 258 0 312 -48 28
-86 22 -129 -21z"/>
</g>
</svg>
