<?xml version="1.0" standalone="no"?>
<!DOCTYPE svg PUBLIC "-//W3C//DTD SVG 20010904//EN"
 "http://www.w3.org/TR/2001/REC-SVG-20010904/DTD/svg10.dtd">
<svg version="1.0" xmlns="http://www.w3.org/2000/svg"
 width="512.000000pt" height="512.000000pt" viewBox="0 0 512.000000 512.000000"
 preserveAspectRatio="xMidYMid meet">
<metadata>
Created by potrace 1.14, written by Peter Selinger 2001-2017
</metadata>
<g transform="translate(0.000000,512.000000) scale(0.100000,-0.100000)"
fill="#000000" stroke="none">
<path d="M2599 5036 c-3 -3 -36 -8 -74 -11 -39 -3 -77 -6 -85 -7 -8 0 -18 -6
-22 -12 -6 -8 -8 -8 -8 1 0 8 -9 9 -30 3 -16 -5 -30 -6 -30 -2 0 4 -5 0 -10
-8 -8 -12 -10 -12 -10 -1 0 10 -3 11 -13 3 -7 -6 -29 -12 -48 -13 -19 -2 -39
-7 -46 -12 -7 -5 -20 -7 -30 -5 -10 2 -23 -3 -30 -12 -10 -12 -12 -12 -13 -1
0 11 -3 11 -15 1 -8 -7 -15 -9 -15 -5 0 5 -10 0 -21 -11 -16 -14 -23 -16 -26
-6 -4 10 -8 10 -20 0 -8 -6 -24 -13 -36 -15 -11 -2 -26 -8 -34 -14 -7 -6 -13
-9 -13 -5 0 4 -13 0 -30 -9 -16 -9 -30 -13 -30 -9 0 4 -6 1 -13 -5 -8 -6 -17
-8 -20 -4 -4 3 -7 1 -7 -6 0 -8 -7 -11 -15 -7 -8 3 -15 1 -15 -5 0 -6 -4 -7
-10 -4 -5 3 -10 2 -10 -2 0 -5 -9 -14 -21 -21 -12 -8 -18 -9 -15 -3 4 6 -37
-12 -91 -40 -54 -29 -100 -55 -101 -60 -2 -5 -7 -7 -12 -4 -5 3 -16 -2 -24
-11 -9 -8 -16 -13 -16 -9 0 3 -10 -3 -22 -14 -11 -11 -24 -18 -28 -16 -5 3
-10 -2 -14 -10 -3 -8 -12 -15 -21 -15 -8 0 -15 -5 -15 -12 0 -6 -3 -9 -6 -6
-3 3 -17 -5 -31 -18 -14 -13 -28 -22 -30 -20 -3 2 -13 -3 -22 -12 -53 -50 -91
-81 -91 -74 0 3 -7 -4 -16 -16 -8 -12 -20 -19 -26 -16 -6 4 -9 3 -6 -2 3 -5
-3 -17 -14 -26 -10 -10 -18 -16 -18 -13 0 2 -31 -27 -70 -65 -38 -38 -70 -74
-70 -80 0 -5 -3 -9 -8 -7 -4 1 -7 -1 -7 -4 0 -3 -14 -18 -32 -33 -18 -15 -35
-36 -38 -46 -4 -11 -13 -20 -21 -20 -8 0 -13 -3 -13 -7 3 -20 -2 -34 -10 -28
-5 3 -12 -4 -16 -15 -3 -11 -11 -20 -16 -20 -5 0 -9 -6 -9 -13 0 -8 -9 -22
-20 -32 -11 -10 -20 -22 -20 -27 0 -5 -8 -18 -19 -29 -10 -11 -29 -40 -42 -66
-13 -25 -29 -47 -36 -50 -7 -3 -11 -9 -8 -13 3 -5 1 -11 -5 -15 -6 -4 -8 -10
-6 -14 3 -4 -6 -20 -20 -36 -14 -16 -23 -34 -20 -41 3 -7 2 -14 -3 -16 -11 -5
-51 -86 -51 -104 0 -9 -5 -12 -12 -8 -6 4 -9 3 -5 -2 3 -5 -2 -25 -11 -44 -8
-19 -16 -38 -17 -42 -2 -5 -4 -11 -5 -15 -1 -5 -2 -11 -1 -15 0 -5 -3 -8 -9
-8 -5 0 -7 -7 -4 -15 4 -8 1 -15 -7 -15 -7 0 -10 -3 -7 -6 4 -3 0 -20 -7 -39
-8 -18 -11 -36 -7 -39 3 -4 1 -10 -5 -14 -6 -4 -14 -19 -16 -32 -2 -14 -7 -32
-10 -40 -5 -13 -14 -54 -21 -100 -1 -9 -5 -21 -10 -28 -4 -6 -5 -12 -1 -12 3
0 1 -10 -6 -21 -9 -17 -8 -20 3 -13 10 6 11 4 2 -7 -5 -8 -11 -30 -13 -49 -2
-19 -8 -38 -15 -42 -8 -5 -7 -8 3 -8 11 0 11 -3 0 -17 -12 -14 -12 -16 0 -8
11 6 12 5 5 -6 -5 -8 -9 -29 -10 -47 -2 -19 -5 -36 -7 -39 -3 -2 -1 -18 3 -34
6 -19 5 -27 -1 -23 -6 3 -8 -6 -6 -23 2 -15 0 -34 -6 -40 -6 -9 -5 -13 4 -13
11 0 11 -2 -1 -10 -8 -5 -10 -10 -5 -10 6 0 11 -9 12 -20 1 -11 -1 -18 -5 -16
-4 3 -8 -4 -8 -15 0 -10 4 -19 9 -19 5 0 4 -7 -3 -15 -7 -8 -8 -15 -3 -15 5 0
9 -24 10 -52 1 -107 8 -168 18 -168 5 0 3 -5 -5 -10 -8 -5 -10 -10 -5 -10 6 0
11 -21 13 -47 1 -26 8 -51 15 -55 9 -6 8 -8 -3 -8 -9 0 -11 -3 -5 -8 10 -7 16
-36 17 -79 0 -13 5 -23 10 -23 5 0 8 -6 5 -12 -2 -7 2 -28 9 -46 7 -17 10 -32
6 -32 -4 0 0 -5 8 -10 12 -8 12 -10 1 -10 -11 0 -9 -5 5 -22 12 -13 13 -18 4
-13 -12 7 -13 6 -3 -7 7 -8 10 -18 6 -21 -3 -4 -2 -7 4 -7 5 0 10 -7 11 -15 1
-8 3 -22 4 -30 1 -8 5 -15 10 -15 4 0 7 -3 6 -7 -3 -13 25 -93 32 -93 4 0 7
-6 7 -12 0 -7 12 -39 27 -70 14 -31 26 -62 26 -67 0 -6 5 -11 10 -11 6 0 10
-9 10 -20 0 -11 5 -20 10 -20 6 0 10 -9 10 -21 0 -13 4 -18 12 -13 8 5 9 2 5
-9 -3 -10 -3 -17 1 -17 4 0 16 -17 27 -38 11 -20 22 -39 25 -42 13 -11 64
-106 62 -113 -1 -5 2 -6 8 -2 5 3 13 -2 17 -11 6 -17 24 -42 51 -69 6 -8 12
-18 12 -24 0 -6 5 -11 10 -11 6 0 10 -4 10 -9 0 -10 27 -40 152 -171 47 -49
91 -90 98 -90 6 0 8 -4 5 -10 -3 -5 -3 -10 2 -10 8 0 31 -19 95 -76 15 -13 31
-24 36 -24 4 0 15 -8 24 -18 26 -27 48 -43 48 -36 0 4 9 -1 20 -12 33 -33 48
-43 54 -37 3 4 6 1 6 -5 0 -7 7 -12 15 -12 9 0 18 -7 21 -15 4 -8 10 -12 15
-9 5 3 9 0 9 -6 0 -6 4 -9 9 -6 4 3 21 -6 37 -19 16 -14 36 -25 45 -25 8 0 24
-8 35 -17 11 -10 26 -19 34 -21 8 -2 18 -9 22 -15 4 -7 8 -8 8 -3 0 4 11 1 23
-7 13 -8 32 -17 43 -19 10 -2 25 -9 32 -16 8 -7 18 -10 23 -7 5 4 9 1 9 -4 0
-6 8 -11 18 -11 10 0 22 -3 26 -7 6 -7 67 -31 96 -38 8 -2 17 -4 20 -5 3 -1 8
-2 13 -1 4 0 7 -5 7 -12 0 -8 4 -7 10 3 7 11 10 11 10 2 0 -7 6 -12 13 -10 6
1 22 -3 35 -10 12 -7 22 -11 22 -8 0 2 20 -2 44 -9 24 -8 47 -11 50 -8 3 4 6
2 6 -3 0 -5 8 -10 18 -11 9 0 35 -4 57 -8 22 -4 52 -8 68 -9 15 -2 30 -5 33
-9 3 -3 13 -3 22 0 11 5 13 3 7 -8 -7 -11 -6 -12 6 -2 12 10 18 10 27 1 9 -9
12 -9 12 0 0 9 5 10 18 4 9 -5 31 -10 47 -10 17 0 45 -3 63 -6 22 -4 32 -2 33
6 0 7 4 4 9 -7 5 -11 9 -15 9 -8 1 7 17 11 45 10 25 -1 43 -4 41 -7 -2 -4 2
-7 10 -7 8 0 12 4 10 7 -3 4 6 8 20 8 14 0 22 -4 19 -9 -9 -14 3 -10 20 7 9 8
16 11 16 5 0 -5 10 -8 21 -6 12 3 46 6 75 7 30 2 54 7 54 11 0 5 7 1 16 -7 8
-9 19 -14 23 -12 4 3 8 -12 9 -32 2 -20 7 -39 11 -42 4 -3 9 -12 9 -20 3 -38
11 -69 22 -90 8 -15 8 -20 1 -16 -6 4 -11 3 -11 -2 0 -6 7 -13 16 -16 13 -5
14 -9 5 -20 -7 -8 -8 -17 -4 -19 5 -3 9 -31 8 -61 0 -31 3 -56 7 -56 19 0 36
13 32 25 -3 7 2 19 10 28 8 8 12 17 9 21 -4 3 -1 6 6 6 7 0 10 4 6 9 -3 5 2
17 11 25 8 9 12 16 8 16 -3 0 -1 6 5 13 6 8 8 17 4 20 -3 4 -1 7 6 7 7 0 9 5
6 10 -4 6 -2 16 4 23 5 7 13 35 17 62 3 28 11 53 18 57 7 5 6 8 -4 8 -13 0
-13 1 0 10 13 9 13 10 0 10 -9 0 -11 3 -5 8 6 4 10 18 9 32 -2 37 5 49 27 45
10 -2 19 2 19 8 0 7 4 6 10 -3 5 -8 10 -10 10 -4 0 10 53 29 72 26 4 -1 22 5
41 13 19 8 37 11 41 8 3 -4 6 -1 6 6 0 8 7 11 15 7 8 -3 15 -2 15 2 0 4 9 8
19 8 11 0 18 -3 16 -6 -1 -3 1 -15 6 -28 7 -19 11 -21 23 -10 7 7 11 19 9 25
-3 7 0 13 6 13 6 0 10 5 8 12 -1 7 8 17 21 23 12 5 22 13 22 18 0 4 5 5 10 2
6 -3 10 -1 10 5 0 6 4 9 9 5 5 -3 12 -1 16 5 4 6 11 8 16 5 5 -4 9 -2 9 3 0 5
18 15 40 22 22 7 40 17 40 22 0 4 3 7 8 6 13 -3 101 45 96 54 -3 4 2 5 10 2 9
-3 16 -2 16 4 0 5 8 12 18 15 40 14 187 114 203 139 3 5 9 9 13 9 7 -1 23 11
61 46 13 13 28 23 32 23 5 0 19 13 33 29 13 17 26 29 29 27 3 -1 34 26 67 61
34 35 59 63 55 63 -3 0 6 8 22 18 15 10 24 22 20 25 -3 4 -1 7 5 7 6 0 13 9
17 20 3 11 9 19 13 17 4 -1 7 0 7 3 1 3 14 19 30 36 32 34 75 87 88 110 11 19
-22 32 -34 13 -5 -8 -9 -9 -9 -4 0 13 -133 13 -142 0 -5 -6 -8 -6 -8 1 0 14
-62 13 -72 -1 -5 -6 -8 -6 -8 1 0 11 -77 13 -83 3 -12 -17 -64 -75 -72 -79 -5
-3 -10 -7 -9 -10 0 -3 -11 -16 -24 -30 -14 -14 -21 -18 -16 -10 4 8 -17 -10
-48 -42 -31 -31 -66 -59 -78 -63 -12 -4 -19 -9 -16 -12 3 -3 -15 -19 -39 -35
-25 -17 -45 -34 -45 -40 0 -5 -4 -6 -10 -3 -5 3 -10 1 -10 -4 0 -6 -7 -11 -15
-11 -8 0 -15 -4 -15 -9 0 -5 -16 -15 -34 -22 -19 -7 -33 -16 -31 -20 3 -4 -10
-13 -28 -20 -17 -7 -38 -19 -45 -26 -7 -7 -22 -13 -33 -13 -10 0 -19 -4 -19
-9 0 -9 -40 -27 -49 -22 -2 2 -7 -3 -11 -9 -10 -17 -63 -22 -57 -7 2 7 -5 25
-16 41 -13 18 -15 26 -6 21 9 -5 8 -1 -4 12 -9 11 -14 23 -10 26 3 4 1 7 -5 7
-7 0 -12 7 -12 15 0 9 -6 18 -14 21 -18 7 -14 36 5 42 8 3 16 8 19 11 12 14
52 31 60 26 6 -4 10 1 10 9 0 10 6 13 15 10 10 -4 15 0 15 11 0 9 4 14 9 11
11 -7 63 19 54 27 -3 4 3 7 15 7 12 0 22 5 22 10 0 6 5 10 11 10 20 0 39 26
26 39 -6 6 -8 11 -4 11 3 0 -4 11 -16 24 -43 47 -77 86 -77 91 0 3 0 10 0 17
0 6 -3 8 -7 5 -3 -4 -17 8 -29 27 l-23 34 -34 -17 c-19 -9 -33 -18 -31 -20 2
-2 -20 -15 -49 -29 -29 -14 -54 -29 -55 -34 -2 -4 -8 -6 -13 -2 -5 3 -9 0 -9
-7 0 -7 -3 -9 -6 -6 -4 3 -16 1 -28 -5 -11 -7 -24 -11 -28 -10 -5 1 -8 -3 -8
-10 0 -6 -3 -8 -7 -5 -3 4 -11 3 -18 -3 -12 -10 -74 26 -75 43 0 5 -23 29 -51
55 -80 73 -91 82 -101 82 -5 0 -6 5 -3 10 3 6 2 10 -2 10 -5 0 -23 13 -41 29
-17 17 -32 28 -32 27 0 -2 -22 17 -48 43 -49 47 -99 119 -94 135 1 4 -2 14 -9
22 -6 7 -8 17 -5 22 3 5 -4 18 -15 28 -18 16 -19 16 -13 1 4 -10 1 -17 -6 -17
-10 0 -10 -3 0 -15 10 -12 10 -15 -1 -15 -11 0 -11 -2 1 -10 8 -5 10 -10 4
-10 -6 0 -10 -13 -9 -30 1 -16 -3 -30 -8 -30 -5 0 -4 -7 3 -15 9 -11 9 -15 1
-15 -7 0 -9 -5 -4 -12 4 -7 8 -24 8 -38 0 -14 4 -31 8 -37 5 -7 5 -17 2 -23
-3 -5 -1 -10 5 -10 6 0 9 -4 5 -9 -3 -5 -1 -12 5 -16 6 -4 8 -11 5 -16 -4 -5
-1 -9 4 -9 6 0 11 -9 11 -20 0 -11 5 -20 10 -20 6 0 10 -6 10 -13 0 -8 9 -22
20 -32 11 -10 20 -24 20 -32 0 -7 5 -13 10 -13 6 0 10 -4 10 -10 0 -5 10 -20
23 -33 12 -14 43 -47 69 -75 25 -28 44 -53 41 -56 -4 -3 1 -6 11 -6 9 0 19 -7
22 -15 9 -23 82 -94 89 -87 4 4 5 3 3 -3 -4 -14 27 -57 35 -48 4 3 7 -1 7 -10
0 -9 5 -17 10 -17 6 0 10 -6 10 -13 0 -7 9 -18 20 -25 11 -7 20 -19 20 -28 0
-8 4 -12 10 -9 5 3 10 -3 10 -14 0 -11 8 -25 18 -30 9 -6 13 -11 8 -11 -4 0 2
-9 15 -21 13 -11 17 -18 9 -14 -8 4 -6 -1 5 -10 17 -13 18 -17 5 -25 -8 -5
-18 -6 -22 -4 -4 3 -8 0 -8 -6 0 -6 -4 -9 -8 -6 -5 3 -21 -1 -36 -9 -15 -8
-24 -9 -20 -3 5 7 2 8 -7 2 -8 -4 -23 -10 -34 -11 -11 -2 -24 -8 -29 -13 -6
-6 -15 -3 -23 8 -8 9 -11 11 -7 3 4 -9 3 -12 -4 -8 -5 4 -8 16 -5 27 3 12 0
20 -6 20 -7 0 -9 5 -6 10 3 6 1 10 -5 10 -7 0 -10 7 -6 15 3 8 2 15 -3 15 -5
0 -12 11 -15 25 -4 14 -11 25 -16 25 -5 0 -7 7 -4 15 4 8 2 15 -2 15 -5 0 -15
15 -23 33 -8 17 -17 34 -20 37 -4 3 -18 26 -31 52 -14 27 -28 48 -32 48 -5 0
-8 7 -8 15 0 8 -4 15 -9 15 -5 0 -12 7 -15 16 -4 10 -2 13 7 8 6 -4 2 4 -11
17 -21 23 -92 126 -92 135 0 3 -11 22 -24 43 -14 21 -22 42 -19 45 4 3 2 6 -4
6 -12 0 -55 93 -57 125 0 13 -5 21 -10 17 -5 -3 -7 2 -3 11 3 9 3 18 -1 21
-10 6 -8 98 2 114 4 7 2 12 -6 12 -9 0 -9 3 2 10 13 8 13 10 1 10 -11 0 -10 4
5 16 13 11 15 17 6 20 -6 3 -9 11 -5 17 4 6 8 18 8 27 4 39 16 130 21 151 2
13 5 38 6 56 1 19 5 30 11 26 6 -3 7 -1 3 5 -13 21 -15 52 -4 52 7 0 6 5 -1
14 -8 9 -8 16 -2 20 10 6 8 37 -4 56 -3 6 -1 10 6 10 8 0 8 4 2 13 -6 6 -9 22
-8 34 1 13 -3 23 -8 23 -5 0 -7 7 -4 15 4 8 2 17 -3 20 -6 4 -10 15 -10 25 0
10 -3 20 -7 22 -5 2 -21 20 -36 41 -15 20 -34 37 -42 37 -7 0 -15 4 -17 9 -4
11 -128 74 -128 65 0 -4 -6 -1 -13 5 -8 6 -17 8 -20 4 -4 -3 -7 -1 -7 5 0 7
-12 12 -26 12 -14 0 -23 4 -19 10 5 9 -16 15 -38 11 -5 -1 -6 3 -2 9 3 5 -1
10 -9 10 -9 0 -16 4 -16 10 0 5 -8 17 -18 27 -10 10 -17 32 -17 48 1 32 33
105 47 105 4 0 8 5 8 10 0 10 20 30 68 70 6 6 12 7 12 3 0 -4 4 -3 8 3 4 6 30
23 57 38 28 14 63 37 79 51 16 14 33 25 37 25 5 0 6 6 3 14 -5 13 24 51 32 43
3 -2 5 -21 6 -41 1 -20 5 -39 10 -42 4 -3 8 -16 8 -29 0 -13 4 -26 9 -30 6 -3
8 -14 6 -25 -2 -12 2 -20 10 -20 9 0 12 -6 9 -15 -4 -8 -1 -22 6 -30 6 -8 9
-19 5 -25 -3 -5 -2 -10 2 -10 8 0 44 -69 49 -92 1 -5 3 -11 4 -15 1 -5 2 -12
1 -16 -1 -5 2 -6 7 -3 5 3 17 -12 27 -34 10 -22 22 -40 27 -40 5 0 8 -6 5 -12
-2 -7 5 -21 15 -30 11 -9 19 -19 18 -23 -1 -4 7 -18 19 -31 12 -13 21 -28 21
-33 0 -5 3 -11 8 -13 4 -1 23 -23 42 -48 19 -25 43 -54 52 -64 10 -11 18 -26
18 -33 0 -7 5 -13 11 -13 5 0 7 -4 4 -10 -3 -5 -2 -10 3 -10 10 0 29 -42 34
-75 2 -11 7 -23 12 -27 6 -3 11 -19 13 -35 3 -29 10 -68 13 -68 6 0 3 -68 -2
-72 -5 -2 -8 -9 -8 -14 0 -19 44 21 48 43 6 38 7 43 13 53 3 6 5 27 5 47 -1
21 4 38 9 38 6 0 6 3 0 8 -6 4 -11 25 -12 47 -2 35 -7 69 -13 85 -1 3 -2 9 -1
13 1 4 -5 20 -13 36 -12 22 -12 31 -3 41 7 8 7 10 1 7 -7 -4 -16 10 -23 33 -6
22 -16 40 -22 40 -6 0 -7 5 -4 10 3 6 1 10 -6 10 -7 0 -9 3 -6 7 4 3 0 17 -8
30 -9 13 -12 23 -8 23 5 0 3 4 -3 8 -6 4 -21 26 -34 50 -13 23 -27 42 -32 42
-4 0 -8 5 -8 11 0 5 6 7 13 4 6 -4 4 0 -5 8 -10 8 -15 17 -11 20 3 4 1 7 -5 7
-7 0 -11 3 -11 8 1 4 0 10 -1 15 -1 4 -3 10 -5 15 -5 18 -17 48 -26 66 -8 14
-8 16 3 10 10 -6 10 -4 -1 9 -7 9 -15 29 -16 44 -3 31 -11 59 -26 87 -8 13 -7
16 1 11 9 -6 9 -2 1 14 -7 12 -9 26 -6 31 3 5 1 11 -4 14 -5 4 -8 17 -6 31 1
14 -1 25 -4 25 -3 0 -7 12 -8 28 -5 60 -10 89 -18 102 -6 9 -4 11 6 5 12 -8
12 -6 0 8 -7 9 -11 17 -7 17 3 0 1 11 -4 25 -7 17 -6 25 1 25 8 0 8 4 1 13 -6
7 -9 25 -8 40 2 15 0 27 -3 27 -4 0 -6 13 -5 29 2 37 -12 62 -25 42 -7 -11 -9
-11 -13 0 -4 10 -10 11 -24 4 -11 -6 -43 -10 -71 -9 -29 0 -53 -4 -53 -9 0 -5
-8 -3 -17 4 -10 7 -14 9 -10 4 7 -9 -89 -32 -150 -37 -13 -1 -23 -6 -23 -10 0
-4 -3 -7 -7 -7 -5 1 -10 0 -13 -1 -15 -5 -48 -12 -67 -14 -11 0 -19 -4 -16 -8
2 -5 -5 -8 -16 -8 -12 0 -21 -4 -21 -10 0 -5 -7 -10 -15 -10 -19 0 -149 -69
-153 -81 -2 -5 -7 -7 -11 -5 -4 3 -25 -11 -47 -31 -21 -20 -32 -32 -24 -28 12
7 13 6 4 -6 -11 -15 -16 -50 -17 -111 0 -21 -4 -38 -9 -38 -5 0 -5 -7 0 -17
12 -23 4 -45 -11 -36 -7 4 -6 -1 2 -10 7 -9 10 -17 6 -17 -4 0 -1 -8 6 -17 8
-9 9 -14 3 -10 -9 5 -12 -27 -10 -122 0 -71 -3 -127 -8 -124 -4 3 0 -6 9 -21
10 -14 13 -26 8 -26 -5 0 -10 -7 -10 -15 0 -8 5 -15 10 -15 5 0 5 -6 -2 -13
-8 -10 -7 -17 2 -27 10 -10 9 -11 -2 -5 -10 6 -12 4 -5 -6 5 -8 9 -23 9 -34 0
-11 4 -26 8 -32 5 -7 5 -13 0 -13 -4 0 -8 -11 -8 -24 0 -13 3 -22 6 -20 4 2 9
-3 13 -11 3 -8 1 -17 -5 -20 -5 -4 -6 -12 -2 -18 7 -12 12 -37 15 -84 1 -13 6
-23 11 -23 5 0 6 -7 3 -16 -3 -8 -1 -25 5 -36 9 -16 8 -19 -3 -12 -10 6 -11 5
-1 -8 7 -8 10 -18 6 -21 -3 -4 -2 -7 3 -7 8 0 14 -22 17 -67 0 -7 4 -13 8 -13
4 0 8 -8 8 -17 0 -17 7 -55 11 -60 2 -2 3 -7 4 -12 0 -5 4 -13 9 -17 4 -4 7
-19 7 -34 0 -14 5 -31 12 -38 7 -7 8 -12 3 -12 -6 0 -4 -4 2 -8 7 -5 14 -20
15 -35 1 -15 6 -27 10 -27 4 0 8 -9 8 -19 0 -11 4 -22 9 -25 4 -3 11 -19 15
-36 3 -17 10 -29 15 -26 5 3 7 -3 4 -14 -3 -12 0 -20 6 -20 7 0 9 -4 6 -10 -3
-5 -2 -10 4 -10 6 0 7 -7 4 -17 -4 -11 -3 -14 5 -9 8 4 12 0 12 -11 0 -10 9
-33 20 -51 11 -18 20 -39 20 -47 0 -8 4 -15 9 -15 5 0 12 -11 15 -24 3 -14 13
-31 21 -39 8 -8 16 -21 17 -28 2 -8 15 -33 31 -56 15 -23 27 -46 27 -51 0 -5
9 -17 20 -27 11 -10 17 -21 15 -25 -7 -11 -91 0 -114 14 -5 4 -12 0 -14 -6 -4
-10 -6 -10 -6 0 -1 7 -5 10 -11 7 -5 -3 -10 -1 -10 5 0 6 -4 9 -8 6 -5 -3 -29
1 -54 9 -26 7 -49 11 -52 8 -3 -4 -6 -1 -6 6 0 7 -4 9 -10 6 -5 -3 -10 -2 -10
4 0 6 -7 8 -15 5 -8 -4 -15 -1 -15 5 0 6 -3 10 -7 10 -21 -3 -43 2 -55 14 -7
6 -22 13 -33 15 -11 2 -30 10 -42 18 -12 8 -29 14 -38 14 -8 0 -15 4 -15 9 0
10 -39 27 -52 23 -5 -1 -8 5 -8 14 0 8 -4 13 -9 10 -5 -3 -20 4 -35 15 -14 11
-26 17 -26 13 0 -4 -9 3 -20 16 -11 13 -20 20 -20 16 0 -4 -12 5 -27 19 -15
14 -34 25 -42 25 -8 0 -11 3 -8 6 3 4 -12 20 -33 35 -22 16 -40 34 -40 41 0 6
-3 9 -6 5 -9 -9 -154 146 -154 165 0 5 -4 6 -10 3 -5 -3 -10 1 -10 9 0 9 -4
16 -8 16 -10 0 -43 56 -37 64 3 3 2 4 -2 1 -8 -6 -53 54 -53 71 0 7 -7 17 -16
22 -9 5 -16 11 -15 13 2 13 -13 49 -20 49 -5 0 -9 9 -9 19 0 11 -5 21 -10 23
-6 2 -12 13 -14 25 -3 11 -11 34 -20 51 -8 16 -12 32 -9 36 4 3 1 6 -5 6 -6 0
-13 15 -17 33 -3 17 -10 41 -14 52 -30 73 -31 75 -18 75 7 1 5 6 -5 14 -20 15
-24 31 -5 20 8 -5 8 -2 -2 9 -7 9 -10 17 -7 17 4 0 2 8 -3 18 -11 20 -23 110
-24 180 -1 23 -6 42 -12 42 -5 0 -3 5 5 10 13 9 13 10 0 10 -13 0 -13 1 0 10
13 9 13 10 0 10 -13 0 -13 1 0 10 8 5 10 10 5 10 -6 0 -11 9 -11 20 0 11 4 20
8 20 5 0 4 9 -2 20 -6 11 -7 20 -3 20 4 0 8 28 8 63 0 34 3 67 8 73 4 7 7 16
6 20 -1 5 -1 22 0 37 1 20 5 26 14 21 9 -6 9 -4 -1 8 -8 10 -9 19 -3 22 5 4 8
15 6 26 -2 11 0 22 5 25 4 3 7 13 6 23 -2 9 0 19 5 22 4 3 9 19 11 35 2 17 7
33 11 36 5 4 10 18 10 33 1 14 8 26 15 26 7 0 10 5 7 10 -4 6 -1 17 5 25 7 8
9 15 5 15 -4 0 -2 6 4 13 6 8 8 17 4 20 -3 4 2 9 11 13 9 3 13 11 10 16 -4 6
-3 13 2 17 5 3 20 29 34 56 13 28 27 52 30 55 3 3 11 17 19 32 8 15 23 37 33
48 10 11 15 20 11 20 -4 0 2 7 13 15 10 8 16 15 11 15 -4 0 1 8 10 18 33 35
53 62 53 72 0 6 7 10 15 10 8 0 15 7 15 15 0 8 7 15 15 15 8 0 15 5 15 12 0
12 79 87 93 88 5 0 5 5 2 10 -3 6 -1 10 4 10 11 0 38 20 77 58 13 12 26 22 29
22 21 -1 25 1 20 10 -3 6 -2 10 3 10 5 0 26 11 46 25 20 13 36 21 36 17 0 -4
5 1 11 11 6 9 14 15 20 12 5 -4 9 -1 9 5 0 6 5 8 10 5 6 -3 10 -1 10 5 0 7 7
9 17 6 10 -4 14 -4 11 0 -10 9 15 32 28 27 6 -2 18 2 25 10 8 7 19 14 24 16
43 9 54 14 49 22 -3 6 6 8 20 5 19 -3 26 0 26 10 0 8 4 13 9 10 5 -4 22 -1 38
5 29 11 69 21 91 22 6 0 12 5 12 10 0 5 9 7 20 4 11 -3 20 -1 20 3 0 5 9 7 20
5 11 -2 20 0 20 5 0 4 11 7 25 5 14 -1 25 1 25 4 0 4 12 6 28 5 15 -1 34 2 43
7 8 4 21 4 29 -1 8 -5 19 -5 25 0 5 4 29 7 53 7 23 -1 44 3 46 8 3 6 5 5 5 -2
1 -8 10 -9 31 -3 21 6 30 5 30 -3 0 -7 4 -6 10 3 8 12 10 12 10 1 0 -10 3 -11
14 -2 10 8 16 9 21 1 3 -6 11 -8 16 -4 5 3 17 0 26 -8 11 -8 14 -8 10 -1 -5 8
0 11 13 10 11 -1 20 -4 20 -8 0 -3 18 -6 40 -5 22 1 40 -1 40 -5 0 -5 9 -6 20
-4 11 2 20 1 20 -3 0 -4 17 -8 37 -10 20 -1 43 -8 52 -15 12 -10 13 -9 6 3 -7
12 -6 13 6 3 8 -6 31 -14 52 -18 20 -4 42 -15 47 -24 5 -9 10 -11 10 -4 0 7
14 5 40 -8 21 -10 46 -19 54 -19 8 0 16 -5 18 -10 2 -6 12 -12 23 -14 31 -7
85 -36 85 -47 0 -6 4 -8 9 -5 5 4 33 -10 62 -29 30 -19 49 -35 44 -35 -13 0
-13 -113 0 -122 7 -5 7 -8 0 -8 -6 0 -9 -16 -7 -37 l4 -38 135 1 c84 0 137 5
141 11 13 21 7 356 -6 361 -7 2 -19 10 -27 19 -8 8 -15 12 -15 9 0 -3 -12 6
-26 19 -15 14 -31 25 -36 25 -5 0 -18 9 -30 20 -12 11 -28 20 -35 20 -7 0 -13
3 -13 8 0 4 -15 13 -32 21 -18 8 -40 20 -48 27 -8 7 -18 13 -22 14 -35 8 -48
14 -48 22 0 5 -4 6 -10 3 -5 -3 -10 -2 -10 4 0 6 -7 7 -17 4 -9 -4 -14 -2 -10
3 3 6 -14 16 -39 23 -24 7 -44 16 -44 20 0 4 -9 8 -20 9 -44 4 -50 6 -50 15 0
5 -6 7 -14 4 -7 -3 -18 -1 -24 5 -8 8 -35 15 -79 20 -7 1 -13 5 -13 9 0 4 -8
6 -17 4 -10 -1 -25 4 -35 12 -11 10 -18 11 -23 3 -3 -5 -11 -7 -18 -3 -14 8
-61 16 -104 16 -18 0 -33 3 -33 7 0 4 -10 6 -22 6 -13 -1 -31 2 -40 6 -12 6
-18 5 -18 -4 0 -10 -2 -10 -9 1 -6 9 -11 10 -15 2 -5 -7 -14 -8 -24 -2 -9 4
-23 6 -30 4 -7 -3 -19 0 -26 7 -11 8 -16 8 -21 0 -4 -6 -13 -9 -20 -6 -8 3
-28 1 -45 -4 -17 -5 -28 -5 -25 -1 2 5 -9 8 -25 7 -17 -1 -30 -5 -30 -10 0 -5
-7 -3 -15 4 -11 9 -15 9 -15 1 0 -7 -10 -10 -24 -7 -14 2 -27 -1 -30 -7 -3 -9
-5 -9 -5 0 -1 9 -8 10 -28 2 -14 -5 -32 -8 -40 -5 -7 3 -13 2 -13 -3 0 -4 -12
-7 -27 -7 -16 1 -33 -2 -39 -6 -6 -4 -25 -8 -42 -10 -18 -1 -32 -6 -32 -11 0
-5 -7 -7 -15 -3 -8 3 -15 0 -15 -5 0 -6 -9 -9 -20 -6 -11 3 -26 -1 -34 -8 -7
-8 -16 -11 -19 -8 -4 3 -14 2 -24 -2 -10 -5 -21 -7 -25 -7 -5 1 -8 -3 -8 -10
0 -6 -3 -8 -7 -5 -3 4 -13 1 -21 -6 -13 -9 -14 -9 -8 1 4 6 -8 3 -27 -8 -19
-12 -45 -23 -58 -25 -12 -3 -26 -10 -31 -17 -4 -7 -8 -9 -8 -5 0 5 -13 -1 -29
-12 -15 -11 -31 -18 -35 -14 -3 3 -6 1 -6 -6 0 -7 -4 -10 -9 -6 -5 3 -12 1
-16 -5 -3 -5 -33 -23 -65 -38 -33 -16 -56 -32 -53 -36 3 -3 0 -6 -7 -6 -7 0
-19 -8 -27 -17 -9 -11 -12 -12 -7 -3 4 8 -6 3 -23 -12 -16 -16 -33 -28 -37
-28 -8 0 -27 -16 -81 -67 -13 -13 -29 -23 -34 -23 -6 0 -15 -9 -21 -20 -6 -11
-15 -18 -21 -15 -5 4 -8 1 -7 -7 2 -7 -3 -12 -10 -10 -8 1 -11 -1 -8 -6 3 -5
-13 -24 -34 -42 -21 -18 -37 -37 -34 -42 3 -4 -1 -8 -8 -8 -7 0 -29 -22 -48
-47 -19 -26 -40 -51 -45 -57 -6 -6 -22 -27 -35 -46 -13 -19 -29 -38 -35 -42
-6 -5 -6 -8 0 -8 6 0 6 -3 -1 -8 -5 -4 -21 -25 -34 -47 -13 -22 -30 -46 -37
-53 -7 -8 -11 -18 -8 -23 4 -5 1 -9 -5 -9 -6 0 -9 -4 -5 -9 3 -6 -3 -14 -12
-20 -10 -6 -15 -11 -11 -11 4 0 -3 -20 -17 -44 -13 -24 -21 -46 -18 -50 4 -3
1 -6 -5 -6 -7 0 -12 -7 -12 -15 0 -8 -3 -15 -7 -15 -5 0 -9 -12 -10 -26 0 -15
-5 -29 -10 -33 -5 -3 -8 -13 -8 -21 0 -8 -3 -18 -8 -21 -4 -3 -10 -18 -13 -34
-3 -15 -9 -35 -13 -44 -5 -9 -14 -43 -20 -76 -7 -33 -15 -67 -18 -75 -7 -17
-12 -47 -16 -101 -2 -19 -6 -40 -9 -45 -3 -5 -5 -21 -3 -36 2 -16 0 -28 -3
-28 -4 0 -7 -49 -7 -109 1 -73 -3 -107 -10 -103 -5 3 -4 -2 4 -11 7 -9 11 -26
8 -37 -3 -11 0 -20 6 -20 8 0 7 -4 -2 -9 -11 -7 -11 -9 0 -14 11 -4 11 -6 1
-6 -9 -1 -10 -6 -4 -18 5 -10 8 -28 7 -41 -1 -12 1 -22 5 -22 4 0 6 -12 4 -27
-1 -15 0 -32 4 -37 3 -6 6 -25 7 -42 0 -17 6 -39 14 -48 10 -12 10 -16 1 -16
-10 0 -10 -3 0 -15 6 -8 9 -19 6 -24 -4 -5 -2 -12 4 -16 6 -4 8 -11 5 -16 -4
-5 -1 -9 5 -9 7 0 9 -8 5 -20 -4 -11 -2 -20 4 -20 6 0 11 -10 11 -23 0 -13 6
-29 12 -36 11 -11 10 -12 -1 -6 -9 5 -8 0 3 -17 9 -14 13 -28 9 -31 -3 -4 -1
-7 5 -7 7 0 12 -9 12 -19 0 -11 5 -23 10 -26 6 -3 10 -15 10 -26 0 -10 5 -19
10 -19 6 0 10 -8 10 -17 0 -10 9 -33 20 -51 11 -17 16 -32 12 -32 -4 0 -2 -4
4 -8 10 -6 27 -35 79 -133 5 -11 13 -19 17 -19 5 0 8 -6 8 -13 0 -7 9 -19 19
-27 11 -7 18 -17 16 -20 -3 -4 7 -17 20 -30 13 -13 22 -27 19 -31 -3 -5 -1 -9
5 -9 5 0 22 -18 39 -40 16 -22 32 -37 35 -33 4 3 7 1 7 -6 0 -20 212 -221 233
-221 4 0 5 -4 2 -10 -3 -6 1 -7 9 -4 9 3 16 2 16 -3 0 -12 141 -108 153 -105
4 1 7 -3 7 -8 0 -6 6 -10 14 -10 7 0 19 -7 26 -15 7 -8 16 -12 21 -9 5 3 12
-2 15 -10 3 -9 10 -14 14 -11 5 3 16 -2 24 -11 9 -8 16 -13 16 -10 0 4 18 -3
40 -14 21 -11 46 -20 55 -20 8 0 15 -4 15 -10 0 -5 9 -10 20 -10 11 0 20 -4
20 -8 0 -4 12 -9 27 -10 15 -1 29 -5 32 -10 3 -4 17 -9 31 -10 14 -2 31 -9 38
-14 6 -6 12 -7 12 -3 0 4 6 3 13 -2 6 -5 22 -8 35 -7 12 0 22 -3 22 -8 0 -6 7
-8 15 -4 8 3 15 1 15 -5 0 -6 5 -7 10 -4 6 4 18 1 27 -7 14 -11 16 -11 8 2 -7
12 -6 13 6 4 15 -12 23 -13 89 -17 22 -1 40 -5 40 -8 0 -4 18 -6 40 -5 22 1
42 -3 44 -8 2 -6 5 -5 5 3 1 11 5 10 16 -5 15 -19 15 -19 8 1 -6 18 -5 18 10
6 11 -9 17 -10 17 -2 0 6 4 11 10 11 5 0 6 -7 3 -17 -5 -12 -3 -14 8 -7 24 15
73 11 93 -8 11 -10 16 -18 12 -18 -4 0 2 -9 12 -20 10 -11 25 -33 33 -48 8
-15 17 -29 20 -32 17 -13 38 -69 29 -75 -19 -12 -327 -5 -347 8 -6 4 -14 3
-18 -3 -4 -6 -12 -7 -18 -3 -7 4 -23 9 -37 11 -33 4 -65 10 -65 12 0 1 -17 3
-38 5 -21 2 -45 9 -54 16 -14 12 -16 12 -8 0 6 -11 5 -12 -6 -5 -8 4 -23 10
-34 11 -11 2 -27 6 -35 10 -14 5 -40 11 -67 15 -7 1 -13 4 -13 7 0 4 -12 8
-27 9 -15 1 -30 8 -35 15 -4 6 -8 8 -8 3 0 -4 -12 -1 -26 9 -18 11 -24 12 -18
4 6 -10 3 -10 -11 1 -10 8 -21 15 -24 15 -3 0 -5 4 -3 8 1 5 -2 6 -8 2 -6 -4
-27 3 -46 14 -19 12 -32 17 -29 11 3 -6 -1 -7 -9 -4 -9 3 -16 10 -16 16 0 5
-5 6 -10 3 -6 -3 -10 -1 -10 6 0 7 -3 9 -7 6 -3 -4 -12 1 -20 11 -8 9 -11 11
-8 3 5 -9 -2 -7 -20 5 -35 23 -84 51 -115 66 -14 7 -27 15 -30 18 -14 16 -70
50 -70 43 0 -4 -5 0 -11 10 -5 9 -17 17 -25 17 -8 0 -12 5 -9 10 3 6 1 10 -5
10 -6 0 -16 4 -23 10 -29 23 -81 68 -113 97 -19 18 -34 31 -34 28 0 -2 -29 25
-65 61 -36 36 -65 69 -65 74 0 5 -10 12 -21 15 -17 6 -19 9 -8 16 11 7 10 9
-3 9 -10 0 -18 4 -18 9 0 5 -14 23 -31 40 -17 17 -28 31 -24 31 3 0 -6 12 -20
28 -14 15 -28 35 -31 45 -3 9 -10 17 -15 17 -5 0 -9 7 -9 15 0 8 -4 15 -10 15
-5 0 -10 7 -10 15 0 8 -5 15 -11 15 -5 0 -7 5 -4 10 3 6 2 10 -3 10 -4 0 -19
21 -32 48 -13 26 -30 53 -37 60 -7 8 -11 18 -8 23 4 5 1 9 -4 9 -6 0 -11 9
-11 21 0 11 -4 17 -10 14 -6 -3 -7 1 -4 9 3 9 2 16 -3 16 -6 0 -15 18 -22 40
-6 22 -15 40 -19 40 -4 0 -9 12 -10 28 -1 15 -7 28 -12 30 -6 2 -10 14 -10 27
0 13 -5 27 -10 30 -6 3 -10 17 -10 30 0 13 -5 27 -10 30 -6 3 -10 15 -10 26 0
10 -5 19 -11 19 -8 0 -8 4 0 14 9 10 9 15 1 18 -6 2 -12 18 -12 35 -1 18 -7
34 -13 37 -7 2 -11 15 -8 30 3 14 2 34 -2 43 -9 21 -14 52 -17 105 -2 21 -7
38 -13 38 -5 0 -3 5 5 10 8 5 10 10 5 10 -6 0 -11 26 -13 58 -2 31 -4 68 -5
82 -2 14 1 33 6 44 7 14 6 16 -4 11 -9 -6 -10 -3 -6 10 4 9 2 25 -5 33 -9 11
-9 14 -1 9 6 -4 14 -3 18 3 3 5 1 10 -6 10 -8 0 -7 5 2 17 10 11 10 14 2 9 -7
-4 -13 -3 -13 3 0 5 5 13 11 17 8 4 7 9 -2 15 -12 7 -12 9 0 9 11 0 11 3 1 15
-7 8 -8 15 -3 15 5 0 8 18 7 40 -1 22 2 40 6 40 10 0 8 20 -3 37 -4 6 -3 14 3
18 5 3 10 21 10 39 0 18 3 36 7 40 4 4 8 21 9 39 1 18 3 34 4 37 2 3 4 10 5
15 2 6 4 12 5 15 1 3 3 16 6 30 2 14 7 32 11 40 3 8 7 21 9 27 7 38 47 150 57
162 10 12 9 13 -2 6 -8 -5 -5 6 8 23 12 18 20 32 17 32 -3 0 3 17 14 38 10 20
20 44 22 52 2 8 9 21 16 28 7 8 10 17 7 22 -3 4 2 11 11 14 8 3 12 10 9 16 -3
5 -1 10 4 10 6 0 11 7 11 15 0 8 5 15 12 15 6 0 8 3 5 6 -4 4 2 19 13 34 11
16 20 33 20 39 0 6 5 11 10 11 6 0 10 7 10 15 0 8 5 15 10 15 6 0 10 7 10 15
0 7 6 18 14 22 8 4 16 15 18 23 2 8 6 17 9 20 19 16 108 130 102 130 -4 1 2 6
14 13 12 7 21 14 20 17 -1 3 19 25 45 50 139 135 228 210 247 210 7 0 9 5 6
10 -3 6 1 10 9 10 9 0 16 5 16 10 0 6 5 10 11 10 6 0 25 11 43 25 18 14 36 23
39 20 4 -3 5 -2 2 2 -5 7 69 55 81 53 4 -1 10 2 13 7 10 15 169 92 175 86 3
-4 6 -1 6 5 0 7 9 12 19 12 11 0 23 5 26 10 4 6 11 8 16 5 5 -4 9 -1 9 6 0 7
3 10 6 6 3 -3 22 3 41 14 19 11 31 14 28 8 -6 -8 -2 -8 14 0 12 7 26 9 31 6 6
-4 9 -1 8 7 -2 8 6 13 20 12 12 -1 22 2 22 5 0 7 21 10 67 12 13 1 21 5 18 9
-3 5 3 9 12 9 43 0 69 7 79 20 8 10 13 11 18 2 4 -6 13 -8 19 -4 7 4 26 8 42
9 17 1 30 3 30 4 0 3 49 9 110 13 28 2 56 7 63 11 7 4 12 3 12 -1 0 -5 9 -9
20 -9 11 0 20 3 20 6 0 7 75 4 89 -4 6 -4 11 -3 11 2 0 5 17 6 40 2 22 -4 43
-4 46 1 2 4 16 4 29 -1 14 -5 39 -8 55 -6 17 2 30 0 30 -4 0 -5 16 -9 35 -9
72 -4 85 -5 85 -11 0 -6 10 -7 78 -13 17 -1 32 -5 32 -9 0 -5 13 -8 28 -8 16
0 32 -3 36 -7 4 -4 19 -9 34 -11 15 -2 29 -6 32 -10 3 -4 16 -9 30 -10 14 -2
30 -8 37 -14 7 -5 17 -7 23 -3 5 3 10 1 10 -5 0 -6 4 -9 9 -5 5 3 15 -1 23 -8
7 -8 19 -12 26 -9 6 2 12 0 12 -5 0 -5 10 -9 22 -10 11 -1 24 -6 27 -11 3 -5
18 -12 33 -15 15 -4 34 -14 42 -23 9 -8 16 -12 16 -8 0 3 6 1 13 -5 8 -6 17
-8 20 -4 4 3 7 1 7 -5 0 -7 7 -12 15 -12 8 0 15 -5 15 -12 0 -6 3 -8 7 -5 4 4
20 -5 36 -20 17 -16 27 -22 23 -15 -11 18 2 15 26 -8 12 -11 34 -25 49 -32 15
-7 25 -16 23 -20 -3 -4 1 -8 9 -8 7 0 23 -9 34 -19 12 -11 24 -17 27 -14 3 4
6 -1 6 -10 0 -9 3 -16 8 -15 9 4 69 -43 129 -99 25 -24 49 -43 53 -43 3 0 13
-11 20 -25 7 -13 21 -27 32 -31 10 -3 18 -9 18 -13 0 -5 15 -24 33 -43 58 -63
87 -98 87 -105 0 -3 7 -13 15 -22 33 -35 65 -79 65 -90 0 -6 5 -11 10 -11 6 0
10 -7 10 -15 0 -8 5 -15 10 -15 6 0 10 -7 10 -15 0 -17 -9 -16 186 -18 115 -2
151 1 151 11 0 6 -4 12 -8 12 -4 0 -15 18 -25 40 -10 22 -22 40 -27 40 -4 0
-5 5 -2 10 3 6 1 10 -4 10 -6 0 -11 6 -11 14 0 7 -7 19 -15 26 -9 7 -14 15
-11 17 2 2 -7 16 -20 30 -13 14 -22 28 -20 30 2 3 -3 13 -12 23 -22 24 -32 38
-62 80 -13 19 -32 41 -42 48 -10 7 -16 18 -13 23 4 5 -1 9 -9 9 -9 0 -16 5
-16 10 0 6 -8 19 -17 29 -77 83 -93 98 -97 93 -4 -3 -6 2 -6 11 0 10 -7 17
-16 17 -8 0 -13 4 -9 9 3 5 -8 18 -25 27 -16 10 -30 22 -30 26 0 4 -18 21 -40
37 -21 15 -36 31 -33 35 3 3 1 6 -5 6 -11 0 -36 18 -67 48 -8 6 -18 12 -24 12
-6 0 -11 4 -11 8 0 4 -18 19 -40 32 -22 14 -40 29 -40 33 0 5 -4 6 -9 3 -5 -3
-11 1 -15 9 -3 8 -12 15 -21 15 -8 0 -15 5 -15 12 0 6 -3 9 -6 5 -4 -3 -21 4
-38 16 -17 13 -44 30 -61 37 -16 8 -32 17 -35 20 -11 11 -84 45 -92 43 -4 -2
-8 2 -8 8 0 5 -4 7 -10 4 -5 -3 -10 -1 -10 4 0 6 -9 11 -20 11 -11 0 -20 5
-20 12 0 6 -3 9 -6 5 -4 -3 -23 2 -44 13 -21 11 -40 16 -44 13 -3 -4 -6 0 -6
7 0 7 -3 10 -7 7 -3 -4 -11 -2 -18 3 -6 5 -22 12 -36 14 -13 3 -26 5 -29 6 -3
2 -8 2 -12 1 -5 0 -8 3 -8 7 0 7 -16 11 -57 14 -7 1 -13 5 -13 10 0 4 -13 8
-30 8 -16 0 -30 4 -30 8 0 5 -17 9 -37 10 -20 1 -40 7 -44 13 -4 6 -12 8 -18
5 -6 -4 -17 -4 -23 1 -7 4 -22 8 -33 8 -11 0 -26 4 -34 9 -10 6 -12 5 -7 -2 4
-7 -7 -5 -29 3 -24 11 -35 12 -35 4 0 -8 -4 -8 -12 -2 -7 6 -21 9 -30 8 -10
-2 -18 0 -18 4 0 4 -9 7 -20 8 -13 1 -18 -2 -13 -10 5 -9 3 -9 -8 -1 -15 12
-55 15 -232 17 -72 1 -117 -2 -117 -8 0 -5 -4 -4 -8 3 -5 7 -10 10 -13 8z"/>
<path d="M2696 4141 c-3 -5 -18 -8 -33 -8 -15 0 -29 -6 -31 -12 -2 -6 -10 -11
-18 -11 -8 0 -14 -5 -14 -11 0 -5 -4 -8 -8 -5 -5 3 -15 -6 -22 -19 -7 -14 -17
-25 -22 -25 -5 0 -14 -13 -19 -30 -6 -16 -16 -30 -22 -30 -6 0 -7 -3 -4 -7 4
-3 2 -12 -4 -19 -6 -8 -9 -21 -5 -29 4 -11 2 -14 -6 -9 -8 5 -9 2 -5 -9 3 -9
2 -19 -3 -22 -5 -3 -8 -23 -7 -45 2 -22 -2 -40 -8 -40 -5 0 -3 -5 5 -10 9 -6
10 -10 3 -10 -8 0 -9 -9 -4 -27 4 -16 6 -34 3 -42 -3 -9 0 -11 8 -6 8 5 11 4
7 -2 -8 -13 22 -103 35 -103 5 0 7 -4 3 -9 -3 -6 3 -14 12 -20 10 -6 14 -11 9
-11 -14 0 55 -60 70 -60 8 0 14 -4 14 -10 0 -5 9 -10 19 -10 11 0 23 -5 26
-10 4 -7 12 -7 18 -2 7 4 22 7 35 6 12 0 22 4 22 10 0 6 4 5 9 -2 7 -11 9 -10
15 3 3 9 10 13 16 10 5 -3 10 -1 10 5 0 6 5 8 10 5 6 -3 10 -2 10 4 0 5 9 13
20 16 11 4 18 11 15 16 -4 5 1 9 10 9 9 0 14 4 10 9 -3 6 2 14 11 19 9 5 16
13 16 18 0 5 4 8 10 6 5 -1 7 2 3 7 -3 6 1 22 10 35 9 14 14 30 10 36 -3 5 -2
10 4 10 5 0 8 9 6 20 -2 11 0 20 4 20 5 0 7 15 7 33 -1 17 3 35 8 39 7 5 6 8
-3 8 -11 0 -11 3 -1 15 7 8 8 15 3 15 -5 0 -10 12 -10 28 -3 51 -7 72 -17 72
-5 0 -7 3 -3 6 9 9 -37 95 -62 118 -11 10 -18 23 -14 29 4 6 1 7 -6 3 -7 -5
-20 -1 -29 7 -31 26 -116 45 -126 28z"/>
</g>
</svg>
